<svg width="24" height="24" viewBox="0 0 24 24" fill="none" xmlns="http://www.w3.org/2000/svg">
  <g id="Weight=Dynamic">
    <path id="Vector" d="M7 14L8 14" stroke="black" stroke-width="1.5" stroke-linecap="round"
      stroke-linejoin="round" />
    <path id="Vector_2" d="M16 14L17 14" stroke="black" stroke-width="1.5" stroke-linecap="round"
      stroke-linejoin="round" />
    <path id="Vector_3"
      d="M3 18V11.4105C3 11.1397 3.05502 10.8716 3.16171 10.6227L5.4805 5.21216C5.79566 4.47679 6.51874 4 7.31879 4H13M3 18V20.4C3 20.7314 3.26863 21 3.6 21H6.4C6.73137 21 7 20.7314 7 20.4V18M3 18H7M21 18V11.4105C21 11.1397 20.945 10.8716 20.8383 10.6227L20.5714 10M21 18V20.4C21 20.7314 20.7314 21 20.4 21H17.6C17.2686 21 17 20.7314 17 20.4V18M21 18H17M7 18H17"
      stroke="black" stroke-width="1.5" stroke-linecap="round" />
    <path id="Vector_4" d="M13 7H17M21 7H17M17 7V3M17 7V11" stroke="black" stroke-width="1.5"
      stroke-linecap="round" stroke-linejoin="round" />
  </g>
</svg>