<svg width="25" height="24" viewBox="0 0 25 24" fill="none" xmlns="http://www.w3.org/2000/svg">
  <path
    d="M12.5 22C18.0228 22 22.5 17.5228 22.5 12C22.5 6.47715 18.0228 2 12.5 2C6.97715 2 2.5 6.47715 2.5 12C2.5 17.5228 6.97715 22 12.5 22Z"
    stroke="#FBFFF1" stroke-width="1.5" stroke-linecap="round" stroke-linejoin="round" />
  <path
    d="M15.5 8.5C14.815 7.81501 13.6087 7.33855 12.5 7.30872M9.5 15C10.1445 15.8593 11.3428 16.3494 12.5 16.391M12.5 7.30872C11.1809 7.27322 10 7.86998 10 9.50001C10 12.5 15.5 11 15.5 14C15.5 15.711 14.0362 16.4462 12.5 16.391M12.5 7.30872V5.5M12.5 16.391V18.5"
    stroke="#FBFFF1" stroke-width="1.5" stroke-linecap="round" stroke-linejoin="round" />
</svg>
  