<svg width="100" height="100" viewBox="0 0 100 100" fill="none" xmlns="http://www.w3.org/2000/svg">
  <path fill-rule="evenodd" clip-rule="evenodd"
    d="M29.7267 11.7222C30.7484 10.2613 32.4605 8.75 35.2463 8.75C36.5029 8.75 37.8148 9.04382 39.0432 9.41462C40.2827 9.78881 41.5625 10.2817 42.754 10.7442C42.81 10.7659 42.8657 10.7875 42.9212 10.8091C44.0776 11.2581 45.1448 11.6725 46.133 11.984C47.1853 12.3157 47.9893 12.4772 48.5728 12.4772H51.4272C52.0107 12.4772 52.8147 12.3157 53.867 11.984C54.8552 11.6725 55.9224 11.2581 57.0788 10.8091L57.246 10.7442C58.4375 10.2817 59.7173 9.78881 60.9568 9.41462C62.1852 9.04382 63.4971 8.75 64.7537 8.75C67.5394 8.75 69.2516 10.2613 70.2733 11.7222C70.7654 12.4258 71.1175 13.1407 71.3667 13.6629C71.4045 13.742 71.4385 13.8137 71.4697 13.8796C71.5504 14.0497 71.6127 14.181 71.6742 14.3017C71.7243 14.4 71.7519 14.4463 71.7593 14.4589C72.6207 15.5316 78.4932 23.5601 79.3186 24.8683C79.3459 24.9116 79.3801 24.9652 79.4209 25.029C80.4778 26.6835 85.9191 34.8611 88.7881 48.6491C89.1725 50.4964 89.4395 51.9073 89.7894 54.4947C90.0813 56.6536 90.0012 59.2336 89.9488 60.79C89.9352 61.194 89.9234 61.5425 89.9206 61.8173C89.906 63.2074 89.7187 65.1525 89.5141 67.0588C89.4777 67.3975 89.4408 67.7413 89.4043 68.0891C88.7141 74.6517 85.7724 78.3013 84.6334 79.6897C84.3799 79.9986 84.1239 80.2936 83.8667 80.5808C82.5122 82.0927 77.9441 86.5807 69.9091 88.5185C62.0254 90.4199 55.889 90.6986 54.2257 90.7394C54.1711 90.7441 54.1159 90.7464 54.0601 90.7464H45.9399C45.8841 90.7464 45.8289 90.7441 45.7743 90.7394C44.111 90.6986 37.9746 90.4198 30.0909 88.5185C22.0559 86.5807 17.4878 82.0928 16.1333 80.5808C15.8761 80.2936 15.6201 79.9987 15.3666 79.6897C14.2276 78.3013 11.2859 74.6517 10.5957 68.0891C10.5592 67.7414 10.5223 67.3976 10.4859 67.0589C10.2813 65.1526 10.094 63.2075 10.0795 61.8173C10.0766 61.5425 10.0648 61.194 10.0512 60.79C9.99882 59.2335 9.91868 56.6536 10.2106 54.4947C10.5605 51.9073 10.8275 50.4964 11.2119 48.6491C14.0809 34.861 19.5222 26.6834 20.5791 25.029C20.6199 24.9652 20.6541 24.9116 20.6815 24.8683C21.5068 23.5601 27.3792 15.5316 28.2407 14.4589C28.2481 14.4464 28.2757 14.4 28.3258 14.3017C28.3873 14.181 28.4496 14.0497 28.5302 13.8796C28.5615 13.8138 28.5955 13.742 28.6333 13.6629C28.8825 13.1407 29.2346 12.4258 29.7267 11.7222ZM52.0074 16.3096C53.0125 16.2321 54.0505 15.9686 55.0261 15.6611C56.1384 15.3104 57.315 14.8535 58.4336 14.419C58.5029 14.392 58.5721 14.3652 58.641 14.3384C59.8502 13.8691 60.9956 13.4302 62.0711 13.1056C63.1577 12.7775 64.0505 12.6055 64.7537 12.6055C65.8875 12.6055 66.5542 13.1315 67.1139 13.9318C67.4125 14.3588 67.6517 14.8303 67.8874 15.3238C67.9123 15.376 67.9384 15.4311 67.9652 15.4877C68.0538 15.6745 68.1503 15.8781 68.2389 16.0521C68.3469 16.2639 68.517 16.5834 68.7471 16.8656C69.4382 17.713 75.3237 25.7621 76.0579 26.9257C76.0829 26.9653 76.1149 27.0153 76.1536 27.0758C76.1843 27.1237 76.2192 27.1779 76.258 27.2382C77.4484 29.0866 82.3695 36.7275 85.0135 49.4345C85.3829 51.2099 85.6332 52.5299 85.9687 55.0114C86.2115 56.8067 86.15 58.8966 86.0996 60.4487C86.084 60.9279 86.0695 61.3749 86.0653 61.777C86.0529 62.9641 85.8904 64.6835 85.6845 66.608C85.6475 66.9541 85.6091 67.3132 85.5699 67.6859C84.9923 73.1786 82.5655 76.133 81.6936 77.1944C81.6796 77.2115 81.6659 77.2281 81.6527 77.2443C81.443 77.4998 81.225 77.7515 80.995 78.0082C79.9586 79.1651 76.0298 83.0763 69.0052 84.7705C60.2488 86.8823 53.778 86.8909 53.778 86.8909H46.222C46.222 86.8909 39.7512 86.8823 30.9948 84.7705C23.9702 83.0763 20.0414 79.1651 19.005 78.0082C18.775 77.7515 18.557 77.4999 18.3473 77.2443C18.3341 77.2281 18.3204 77.2115 18.3064 77.1944C17.4346 76.133 15.0077 73.1786 14.4301 67.6859C14.3909 67.3133 14.3525 66.9541 14.3155 66.6081C14.1096 64.6835 13.9471 62.9641 13.9347 61.777C13.9308 61.4 13.9178 60.9836 13.9033 60.5382C13.9024 60.5086 13.9014 60.4786 13.9004 60.4487C13.85 58.8966 13.7885 56.8067 14.0313 55.0114C14.3668 52.5299 14.6171 51.2099 14.9865 49.4345C17.7168 36.313 22.8751 28.5934 23.8464 27.0758C23.8851 27.0153 23.9171 26.9653 23.9421 26.9257C24.6763 25.7621 30.5618 17.713 31.2529 16.8656C31.483 16.5834 31.6531 16.2639 31.7611 16.0521C31.8497 15.8782 31.9462 15.6745 32.0347 15.4878C32.0614 15.4315 32.0878 15.3758 32.1126 15.3238C32.3482 14.8303 32.5875 14.3588 32.8861 13.9318C33.4458 13.1315 34.1125 12.6055 35.2463 12.6055C35.9495 12.6055 36.8423 12.7775 37.9289 13.1056C39.0044 13.4302 40.1498 13.8691 41.359 14.3384C41.4279 14.3652 41.4971 14.392 41.5664 14.419C42.685 14.8535 43.8616 15.3104 44.9739 15.6611C45.9495 15.9686 46.9875 16.2321 47.9926 16.3096C48.09 16.3248 48.1899 16.3326 48.2916 16.3326H51.7084C51.8101 16.3326 51.91 16.3248 52.0074 16.3096Z"
    fill="#B3B3B3" />
  <path
    d="M49.5082 42.0862C49.6923 41.8143 49.8556 41.5366 50.0005 41.2578C50.1454 41.5366 50.3087 41.8143 50.4928 42.0862C51.4298 43.4702 52.8082 44.1241 53.8627 44.4356C54.3973 44.5935 54.8762 44.6721 55.2236 44.7115C55.3982 44.7314 55.5421 44.7416 55.6463 44.7469C55.7505 44.7522 55.2505 44.7528 55.8338 44.7526C56.5179 44.7524 57.0005 44.2303 57.0005 43.586C57.0005 42.9433 56.4809 42.4221 55.839 42.4193L55.8289 42.4191C55.8171 42.4188 55.7954 42.4181 55.765 42.4166C55.704 42.4135 55.6086 42.4069 55.487 42.3931C55.2419 42.3653 54.9005 42.3092 54.5237 42.1979C53.7553 41.9709 52.9461 41.5479 52.4249 40.778C51.8158 39.8784 51.4936 38.8345 51.3282 37.9798C51.2467 37.5585 51.2062 37.5285 51.1863 37.2776C51.1763 37.1526 51.1715 37.0557 51.1692 36.9932C51.1681 36.9619 51.1676 36.9394 51.1673 36.9262L51.1672 36.9137C51.1672 36.9137 51.1671 36.433 50.8253 36.0913C50.4836 35.7495 50.0005 35.7495 50.0005 35.7495C50.0005 35.7495 49.5174 35.7495 49.1756 36.0913C48.8339 36.433 48.8338 36.9137 48.8338 36.9137L48.8336 36.9262C48.8334 36.9394 48.8329 36.9619 48.8318 36.9932C48.8295 37.0557 48.8247 37.1526 48.8147 37.2776C48.7947 37.5285 48.7543 37.5585 48.6728 37.9798C48.5074 38.8345 48.1852 39.8784 47.5761 40.778C47.0548 41.5479 46.2457 41.9709 45.4773 42.1979C45.1005 42.3092 44.759 42.3653 44.514 42.3931C44.3924 42.4069 44.297 42.4135 44.236 42.4166C44.2056 42.4181 44.1839 42.4188 44.172 42.4191L44.162 42.4193C43.52 42.4221 43.0005 42.9433 43.0005 43.586C43.0005 44.2303 43.483 44.7524 44.1672 44.7526C44.7505 44.7528 44.2505 44.7522 44.3547 44.7469C44.4589 44.7416 44.6028 44.7314 44.7774 44.7115C45.1247 44.6721 45.6037 44.5935 46.1383 44.4356C47.1928 44.1241 48.5711 43.4702 49.5082 42.0862Z"
    fill="#B3B3B3" />
  <path
    d="M40.0007 37.7504C40.0007 39.9595 38.2099 41.7504 36.0007 41.7504C33.7916 41.7504 32.0007 39.9595 32.0007 37.7504L38.7513 34.8462C39.5208 35.5752 40.0007 36.6067 40.0007 37.7504Z"
    fill="#B3B3B3" />
  <path
    d="M68.0006 37.7504C68.0006 39.9595 66.2097 41.7504 64.0006 41.7504C61.7915 41.7504 60.0006 39.9595 60.0006 37.7504C60.0006 36.6067 60.4805 35.5752 61.25 34.8462L68.0006 37.7504Z"
    fill="#B3B3B3" />
</svg>